<svg width="24" height="24" viewBox="0 0 24 24" fill="none" xmlns="http://www.w3.org/2000/svg">
<path d="M17.1429 20.5714H6.85714C6.40249 20.5714 5.96645 20.752 5.64496 21.0735C5.32347 21.395 5.14286 21.8311 5.14286 22.2857C5.14286 22.7404 5.32347 23.1764 5.64496 23.4979C5.96645 23.8194 6.40249 24 6.85714 24H17.1429C17.5975 24 18.0335 23.8194 18.355 23.4979C18.6765 23.1764 18.8571 22.7404 18.8571 22.2857C18.8571 21.8311 18.6765 21.395 18.355 21.0735C18.0335 20.752 17.5975 20.5714 17.1429 20.5714ZM22.2857 0H1.71429C1.25963 0 0.823594 0.180612 0.502103 0.502103C0.180612 0.823594 0 1.25963 0 1.71429V17.1429C0 17.5975 0.180612 18.0335 0.502103 18.355C0.823594 18.6765 1.25963 18.8571 1.71429 18.8571H22.2857C22.7404 18.8571 23.1764 18.6765 23.4979 18.355C23.8194 18.0335 24 17.5975 24 17.1429V1.71429C24 1.25963 23.8194 0.823594 23.4979 0.502103C23.1764 0.180612 22.7404 0 22.2857 0ZM20.5714 15.4286H3.42857V3.42857H20.5714V15.4286Z" fill="white"/>
</svg>
