<svg width="20" height="28" viewBox="0 0 20 28" fill="none" xmlns="http://www.w3.org/2000/svg">
<path d="M14 0H6C4.4087 0 2.88258 0.632141 1.75736 1.75736C0.632141 2.88258 0 4.4087 0 6V22C0 23.5913 0.632141 25.1174 1.75736 26.2426C2.88258 27.3679 4.4087 28 6 28H14C15.5913 28 17.1174 27.3679 18.2426 26.2426C19.3679 25.1174 20 23.5913 20 22V6C20 4.4087 19.3679 2.88258 18.2426 1.75736C17.1174 0.632141 15.5913 0 14 0V0ZM16 22C16 22.5304 15.7893 23.0391 15.4142 23.4142C15.0391 23.7893 14.5304 24 14 24H6C5.46957 24 4.96086 23.7893 4.58579 23.4142C4.21071 23.0391 4 22.5304 4 22V6C4 5.46957 4.21071 4.96086 4.58579 4.58579C4.96086 4.21071 5.46957 4 6 4H14C14.5304 4 15.0391 4.21071 15.4142 4.58579C15.7893 4.96086 16 5.46957 16 6V22ZM12 18H8C7.46957 18 6.96086 18.2107 6.58579 18.5858C6.21071 18.9609 6 19.4696 6 20C6 20.5304 6.21071 21.0391 6.58579 21.4142C6.96086 21.7893 7.46957 22 8 22H12C12.5304 22 13.0391 21.7893 13.4142 21.4142C13.7893 21.0391 14 20.5304 14 20C14 19.4696 13.7893 18.9609 13.4142 18.5858C13.0391 18.2107 12.5304 18 12 18Z" fill="white"/>
</svg>
